<?xml version="1.0" encoding="UTF-8" standalone="no"?>
<svg width="1561px" height="248px" viewBox="0 0 1561 248" version="1.1" xmlns="http://www.w3.org/2000/svg" xmlns:xlink="http://www.w3.org/1999/xlink">
    <!-- Generator: Sketch 39.1 (31720) - http://www.bohemiancoding.com/sketch -->
    <title>logo-blue-orange-light-background</title>
    <desc>Created with Sketch.</desc>
    <defs></defs>
    <g id="Page-1" stroke="none" stroke-width="1" fill="none" fill-rule="evenodd">
        <g id="logo-blue-orange-light-background" transform="translate(0.500000, -0.786626)">
            <g id="logo_text">
                <path d="M0,158.4 C0,106.3 37.7,69.3 90.2,69.3 C125.1,69.3 146.2,84.4 157.5,99.9 L128.3,127.4 C120.2,115.4 107.9,109.1 92.4,109.1 C65.3,109.1 46.3,128.8 46.3,158.4 C46.3,188 65.3,208.1 92.4,208.1 C107.9,208.1 128.3,189.8 128.3,189.8 L157.5,216.9 C146.2,232.8 125.1,247.9 90.2,247.9 C37.7,247.9 0,210.9 0,158.4 L0,158.4 Z" id="Shape" fill="#17242C"></path>
                <polygon id="Shape" fill="#17242C" points="169.6 247.9 169.6 1 219.7 1 219.7 247.9"></polygon>
                <path d="M231.8,158 C231.8,108.7 268.1,68.9 319.9,68.9 C370.6,68.9 405.2,107 405.2,162.6 L405.2,172.5 L278.6,172.5 C281.4,194 298.7,212 327.6,212 C342,212 362.1,205.7 373.1,195.1 L392.8,224 C375.9,239.5 349.1,247.6 322.7,247.6 C270.9,247.5 231.8,212.7 231.8,158 L231.8,158 Z M319.9,104.5 C292.1,104.5 280.1,125.3 278,142.2 L361.9,142.2 C360.7,126 349.5,104.5 319.9,104.5 L319.9,104.5 Z" id="Shape" fill="#17242C"></path>
                <polygon id="Shape" fill="#17242C" points="461.4 247.9 389.7 69.3 440 69.3 486.6 193.5 533.2 69.3 583.9 69.3 512.2 247.9 461.4 247.9"></polygon>
                <path d="M567.4,158.4 C567.4,109.1 603.7,69.3 655.5,69.3 C706.2,69.3 740.8,107.4 740.8,163 L740.8,172.9 L614.2,172.9 C617,194.4 634.3,212.4 663.2,212.4 C677.6,212.4 697.7,206.1 708.7,195.5 L728.4,224.4 C711.5,239.9 684.7,248 658.3,248 C606.5,247.9 567.4,213 567.4,158.4 L567.4,158.4 Z M655.5,104.8 C627.7,104.8 615.7,125.6 613.6,142.5 L697.5,142.5 C696.3,126.3 685.1,104.8 655.5,104.8 L655.5,104.8 Z" id="Shape" fill="#17242C"></path>
                <path d="M752.8,247.9 L752.8,73.6 L798.6,73.6 L798.6,97.4 C810.9,81.9 832.5,69.3 854.2,69.3 L854.2,114 C851,113.3 846.6,112.9 841.6,112.9 C826.4,112.9 806.2,121.6 798.7,132.7 L798.7,247.8 L752.8,247.8 L752.8,247.9 Z" id="Shape" fill="#17242C"></path>
                <path d="M894.2,201.9 L894.2,114.1 L866.3,114.1 L866.3,69.2 L894.2,69.2 L894.2,27.1 L938.8,27.1 L938.8,69.3 L972.9,69.3 L972.9,114.2 L938.8,114.2 L938.8,190.1 C938.8,200.5 944.4,208.6 954.1,208.6 C960.7,208.6 967,206.2 969.4,203.7 L978.8,237.1 C972.2,243 960.3,247.9 941.9,247.9 C910.9,247.9 894.2,231.8 894.2,201.9 L894.2,201.9 Z" id="Shape" fill="#F94C00"></path>
                <path d="M976.8,158.4 C976.8,109.1 1013.1,69.2 1064.9,69.2 C1115.6,69.2 1150.2,107.3 1150.2,162.9 L1150.2,172.8 L1023.7,172.8 C1026.5,194.3 1043.8,212.3 1072.7,212.3 C1087.1,212.3 1107.2,206 1118.2,195.4 L1137.9,224.3 C1121,239.8 1094.2,247.9 1067.8,247.9 C1015.9,247.9 976.8,213 976.8,158.4 L976.8,158.4 Z M1064.9,104.8 C1037.1,104.8 1025.1,125.6 1023,142.5 L1106.9,142.5 C1105.8,126.3 1094.5,104.8 1064.9,104.8 L1064.9,104.8 Z" id="Shape" fill="#F94C00"></path>
                <path d="M1162.3,158.4 C1162.3,106.3 1200,69.3 1252.5,69.3 C1287.4,69.3 1308.5,84.4 1319.8,99.9 L1290.6,127.4 C1282.5,115.4 1270.2,109.1 1254.7,109.1 C1227.6,109.1 1208.6,128.8 1208.6,158.4 C1208.6,188 1227.6,208.1 1254.7,208.1 C1270.2,208.1 1282.5,201.1 1290.6,189.8 L1319.8,216.9 C1308.5,232.7 1287.4,247.9 1252.5,247.9 C1200,247.9 1162.3,210.9 1162.3,158.4 L1162.3,158.4 Z" id="Shape" fill="#F94C00"></path>
                <path d="M1452.9,247.8 L1452.9,139 C1452.9,114.2 1439.9,114 1419.6,114 C1401.5,114 1387,116.7 1378.9,127.5 L1378.9,247.8 L1331.9,247.8 L1331.9,0.9 L1378.9,0.9 L1378.9,92.3 C1390.4,78.6 1412.6,69.2 1441.8,69.2 C1481,69.2 1499.9,86 1499.9,120.8 L1499.9,247.8 L1452.9,247.8 L1452.9,247.8 Z" id="Shape" fill="#F94C00"></path>
            </g>
            <g id="RegisteredTM-Copy" transform="translate(1520.000000, 205.426747)" fill="#17242C">
                <g id="Group" transform="translate(0.144508, 0.161184)">
                    <path d="M19.5014182,18.9031446 C20.540298,18.9031446 21.2958469,18.6968498 21.7491762,18.3030141 C22.2025056,17.9279325 22.448059,17.2902938 22.448059,16.3900981 C22.448059,15.5086563 22.2025056,14.8897717 21.7491762,14.4959361 C21.2958469,14.1208545 20.540298,13.9333137 19.5014182,13.9333137 L17.3858813,13.9333137 L17.3858813,18.9031446 L19.5014182,18.9031446 M17.3858813,22.3351411 L17.3858813,29.6492318 L12.3614809,29.6492318 L12.3614809,10.3137765 L20.0303025,10.3137765 C22.5991688,10.3137765 24.4691524,10.7451203 25.6591419,11.6078079 C26.8680202,12.4517415 27.4535706,13.8020352 27.4535706,15.658689 C27.4535706,16.9339663 27.1513511,17.9841948 26.5280232,18.8093742 C25.9046953,19.6157996 24.9791479,20.2346842 23.7136035,20.6097658 C24.4124862,20.7785525 25.0169253,21.13488 25.5646983,21.6787483 C26.1124713,22.2226166 26.6602442,23.0477961 27.2080172,24.1730408 L29.946882,29.6492318 L24.6013734,29.6492318 L22.2213943,24.8481876 C21.7491762,23.8917296 21.2580695,23.2165828 20.7669627,22.8790093 C20.2758559,22.5226819 19.6147506,22.3351411 18.8025355,22.3351411 L17.3858813,22.3351411" id="Shape"></path>
                    <path d="M35.1411315,20.2472592 C35.1411315,11.854362 28.2884965,5.05057443 19.8353428,5.05057443 C11.3821891,5.05057443 4.52955405,11.854362 4.52955405,20.2472592 C4.52955405,28.6401565 11.3821891,35.443944 19.8353428,35.443944 C28.2884965,35.443944 35.1411315,28.6401565 35.1411315,20.2472592 L35.1411315,20.2472592 Z M0.156471545,20.2472592 C0.156471545,9.45639134 8.96700228,0.708664497 19.8353428,0.708664497 C30.7036832,0.708664497 39.514214,9.45639134 39.514214,20.2472592 C39.514214,31.0381272 30.7036832,39.785854 19.8353428,39.785854 C8.96700228,39.785854 0.156471545,31.0381272 0.156471545,20.2472592 L0.156471545,20.2472592 Z" id="Oval-2"></path>
                </g>
            </g>
        </g>
    </g>
</svg>